<svg width="25" height="24" viewBox="0 0 25 24" fill="none" xmlns="http://www.w3.org/2000/svg">
<path fill-rule="evenodd" clip-rule="evenodd" d="M4.75 4.75C4.19772 4.75 3.75 5.19771 3.75 5.75L3.75 7.25H21.25V5.75003C21.25 5.19774 20.8023 4.75003 20.25 4.75003L4.75 4.75ZM21.25 9.25H3.75V11.75H21.25V9.25ZM21.25 13.75H3.75L3.75 18.25C3.75 18.8023 4.19771 19.25 4.75 19.25L20.25 19.25C20.8023 19.25 21.25 18.8023 21.25 18.25V13.75ZM1.75 5.75C1.75 4.09315 3.09315 2.74999 4.75001 2.75L20.25 2.75003C21.9069 2.75003 23.25 4.09318 23.25 5.75003V18.25C23.25 19.9069 21.9069 21.25 20.25 21.25L4.75 21.25C3.09314 21.25 1.75 19.9069 1.75 18.25L1.75 5.75Z" fill="white"/>
</svg>
